{
  "accessors": [
    {
      "bufferView": 0,
      "byteOffset": 0,
      "componentType": 5126,
      "normalized": false,
      "count": 24,
      "type": "VEC3",
      "max": [
        0.5,
        1,
        2
      ],
      "min": [
        -0.5,
        -1,
        -2
      ]
    },
    {
      "bufferView": 1,
      "byteOffset": 0,
      "componentType": 5126,
      "normalized": false,
      "count": 24,
      "type": "VEC3",
      "max": [
        1,
        1,
        1
      ],
      "min": [
        -1,
        -1,
        -1
      ]
    },
    {
      "bufferView": 2,
      "byteOffset": 0,
      "componentType": 5126,
      "normalized": false,
      "count": 24,
      "type": "VEC2",
      "max": [
        1,
        1
      ],
      "min": [
        0,
        0
      ]
    },
    {
      "bufferView": 3,
      "byteOffset": 0,
      "componentType": 5123,
      "normalized": false,
      "count": 36,
      "type": "SCALAR",
      "max": [
        23
      ],
      "min": [
        0
      ]
    },
    {
      "bufferView": 4,
      "byteOffset": 0,
      "componentType": 5126,
      "normalized": false,
      "count": 561,
      "type": "VEC3",
      "max": [
        1,
        1,
        1
      ],
      "min": [
        -1,
        -1,
        -1
      ]
    },
    {
      "bufferView": 5,
      "byteOffset": 0,
      "componentType": 5126,
      "normalized": false,
      "count": 561,
      "type": "VEC3",
      "max": [
        1,
        1,
        1
      ],
      "min": [
        -1,
        -1,
        -1
      ]
    },
    {
      "bufferView": 6,
      "byteOffset": 0,
      "componentType": 5126,
      "normalized": false,
      "count": 561,
      "type": "VEC2",
      "max": [
        1.015625,
        1
      ],
      "min": [
        -0.015625,
        0
      ]
    },
    {
      "bufferView": 7,
      "byteOffset": 0,
      "componentType": 5123,
      "normalized": false,
      "count": 2880,
      "type": "SCALAR",
      "max": [
        560
      ],
      "min": [
        0
      ]
    },
    {
      "bufferView": 8,
      "byteOffset": 0,
      "componentType": 5126,
      "normalized": false,
      "count": 24,
      "type": "VEC3",
      "max": [
        0.5,
        0.5,
        0.5
      ],
      "min": [
        -0.5,
        -0.5,
        -0.5
      ]
    },
    {
      "bufferView": 9,
      "byteOffset": 0,
      "componentType": 5126,
      "normalized": false,
      "count": 24,
      "type": "VEC3",
      "max": [
        1,
        1,
        1
      ],
      "min": [
        -1,
        -1,
        -1
      ]
    },
    {
      "bufferView": 10,
      "byteOffset": 0,
      "componentType": 5126,
      "normalized": false,
      "count": 24,
      "type": "VEC2",
      "max": [
        1,
        1
      ],
      "min": [
        0,
        0
      ]
    },
    {
      "bufferView": 11,
      "byteOffset": 0,
      "componentType": 5123,
      "normalized": false,
      "count": 36,
      "type": "SCALAR",
      "max": [
        23
      ],
      "min": [
        0
      ]
    },
    {
      "bufferView": 12,
      "byteOffset": 0,
      "componentType": 5126,
      "normalized": false,
      "count": 65,
      "type": "VEC3",
      "max": [
        0.10000000149011612,
        1,
        0.10000000149011612
      ],
      "min": [
        -0.10000000149011612,
        0,
        -0.10000000149011612
      ]
    },
    {
      "bufferView": 13,
      "byteOffset": 0,
      "componentType": 5126,
      "normalized": false,
      "count": 65,
      "type": "VEC2",
      "max": [
        1,
        1
      ],
      "min": [
        0,
        0
      ]
    },
    {
      "bufferView": 14,
      "byteOffset": 0,
      "componentType": 5126,
      "normalized": false,
      "count": 65,
      "type": "VEC3",
      "max": [
        0.9980525970458984,
        0.4472135901451111,
        0.9980525970458984
      ],
      "min": [
        -0.9980525970458984,
        -1,
        -0.9980525970458984
      ]
    },
    {
      "bufferView": 15,
      "byteOffset": 0,
      "componentType": 5123,
      "normalized": false,
      "count": 288,
      "type": "SCALAR",
      "max": [
        64
      ],
      "min": [
        0
      ]
    },
    {
      "bufferView": 16,
      "byteOffset": 0,
      "componentType": 5126,
      "normalized": false,
      "count": 121,
      "type": "SCALAR",
      "max": [
        1.0
      ],
      "min": [
        0.0
      ]
    },
    {
      "bufferView": 17,
      "byteOffset": 0,
      "componentType": 5126,
      "normalized": false,
      "count": 121,
      "type": "VEC3",
      "max": [
        -0.011876935139298439,
        0.8406830430030823,
        0.17068307101726532
      ],
      "min": [
        -0.013243062421679497,
        0.8393169641494751,
        0.16931693255901337
      ]
    },
    {
      "bufferView": 18,
      "byteOffset": 0,
      "componentType": 5126,
      "normalized": false,
      "count": 121,
      "type": "VEC3",
      "max": [
        -0.012500840239226818,
        0.5026441812515259,
        0.2000441551208496
      ],
      "min": [
        -0.012589164078235626,
        0.5025558471679688,
        0.19995583593845367
      ]
    },
    {
      "bufferView": 19,
      "byteOffset": 0,
      "componentType": 5126,
      "normalized": false,
      "count": 121,
      "type": "VEC3",
      "max": [
        0.2311900556087494,
        0.500515878200531,
        0.2514203190803528
      ],
      "min": [
        -0.013124683871865273,
        0.26619309186935425,
        0.2309769093990326
      ]
    }
  ],
  "animations": [
    {
      "channels": [
        {
          "sampler": 0,
          "target": {
            "node": 1,
            "path": "translation"
          }
        },
        {
          "sampler": 1,
          "target": {
            "node": 2,
            "path": "translation"
          }
        },
        {
          "sampler": 2,
          "target": {
            "node": 3,
            "path": "translation"
          }
        }
      ],
      "samplers": [
        {
          "input": 16,
          "interpolation": "LINEAR",
          "output": 17
        },
        {
          "input": 16,
          "interpolation": "LINEAR",
          "output": 18
        },
        {
          "input": 16,
          "interpolation": "LINEAR",
          "output": 19
        }
      ]
    }
  ],
  "asset": {
    "generator": "pygltflib@v1.15.5",
    "version": "2.0"
  },
  "bufferViews": [
    {
      "buffer": 0,
      "byteOffset": 0,
      "byteLength": 288,
      "byteStride": 12,
      "target": 34962
    },
    {
      "buffer": 0,
      "byteOffset": 288,
      "byteLength": 288,
      "byteStride": 12,
      "target": 34962
    },
    {
      "buffer": 0,
      "byteOffset": 576,
      "byteLength": 192,
      "byteStride": 8,
      "target": 34962
    },
    {
      "buffer": 0,
      "byteOffset": 768,
      "byteLength": 72,
      "target": 34963
    },
    {
      "buffer": 0,
      "byteOffset": 840,
      "byteLength": 6732,
      "byteStride": 12,
      "target": 34962
    },
    {
      "buffer": 0,
      "byteOffset": 7572,
      "byteLength": 6732,
      "byteStride": 12,
      "target": 34962
    },
    {
      "buffer": 0,
      "byteOffset": 14304,
      "byteLength": 4488,
      "byteStride": 8,
      "target": 34962
    },
    {
      "buffer": 0,
      "byteOffset": 18792,
      "byteLength": 5760,
      "target": 34963
    },
    {
      "buffer": 0,
      "byteOffset": 24552,
      "byteLength": 288,
      "byteStride": 12,
      "target": 34962
    },
    {
      "buffer": 0,
      "byteOffset": 24840,
      "byteLength": 288,
      "byteStride": 12,
      "target": 34962
    },
    {
      "buffer": 0,
      "byteOffset": 25128,
      "byteLength": 192,
      "byteStride": 8,
      "target": 34962
    },
    {
      "buffer": 0,
      "byteOffset": 25320,
      "byteLength": 72,
      "target": 34963
    },
    {
      "buffer": 0,
      "byteOffset": 25392,
      "byteLength": 780,
      "byteStride": 12,
      "target": 34962
    },
    {
      "buffer": 0,
      "byteOffset": 26172,
      "byteLength": 520,
      "byteStride": 8,
      "target": 34962
    },
    {
      "buffer": 0,
      "byteOffset": 26692,
      "byteLength": 780,
      "byteStride": 12,
      "target": 34962
    },
    {
      "buffer": 0,
      "byteOffset": 27472,
      "byteLength": 576,
      "target": 34963
    },
    {
      "buffer": 1,
      "byteOffset": 0,
      "byteLength": 484
    },
    {
      "buffer": 2,
      "byteOffset": 0,
      "byteLength": 1452
    },
    {
      "buffer": 3,
      "byteOffset": 0,
      "byteLength": 1452
    },
    {
      "buffer": 4,
      "byteOffset": 0,
      "byteLength": 1452
    }
  ],
  "buffers": [
    {
      "uri": "data:application/octet-stream;base64,",
      "byteLength": 28048
    },
    {
      "uri": "data:application/octet-stream;base64,",
      "byteLength": 484
    },
    {
      "uri": "data:application/octet-stream;base64,",
      "byteLength": 1452
    },
    {
      "uri": "data:application/octet-stream;base64,",
      "byteLength": 1452
    },
    {
      "uri": "data:application/octet-stream;base64,",
      "byteLength": 1452
    }
  ],
  "materials": [
    {
      "pbrMetallicRoughness": {
        "baseColorFactor": [
          1.0,
          1.0,
          1.0,
          1.0
        ],
        "metallicFactor": 0,
        "roughnessFactor": 1
      },
      "emissiveFactor": [
        0.0,
        0.0,
        0.0
      ],
      "alphaMode": "OPAQUE",
      "alphaCutoff": 0.5,
      "doubleSided": false
    },
    {
      "pbrMetallicRoughness": {
        "baseColorFactor": [
          1.0,
          1.0,
          1.0,
          1.0
        ],
        "metallicFactor": 0,
        "roughnessFactor": 1
      },
      "emissiveFactor": [
        0.0,
        0.0,
        0.0
      ],
      "alphaMode": "OPAQUE",
      "alphaCutoff": 0.5,
      "doubleSided": false
    },
    {
      "pbrMetallicRoughness": {
        "baseColorFactor": [
          1.0,
          1.0,
          1.0,
          1.0
        ],
        "metallicFactor": 0,
        "roughnessFactor": 1
      },
      "emissiveFactor": [
        0.0,
        0.0,
        0.0
      ],
      "alphaMode": "OPAQUE",
      "alphaCutoff": 0.5,
      "doubleSided": false
    },
    {
      "pbrMetallicRoughness": {
        "baseColorFactor": [
          1.0,
          1.0,
          1.0,
          1.0
        ],
        "metallicFactor": 0,
        "roughnessFactor": 1
      },
      "emissiveFactor": [
        0.0,
        0.0,
        0.0
      ],
      "alphaMode": "OPAQUE",
      "alphaCutoff": 0.5,
      "doubleSided": true
    }
  ],
  "meshes": [
    {
      "primitives": [
        {
          "attributes": {
            "POSITION": 0,
            "NORMAL": 1,
            "TEXCOORD_0": 2
          },
          "indices": 3,
          "mode": 4,
          "material": 0
        }
      ]
    },
    {
      "primitives": [
        {
          "attributes": {
            "POSITION": 4,
            "NORMAL": 5,
            "TEXCOORD_0": 6
          },
          "indices": 7,
          "mode": 4,
          "material": 1
        }
      ]
    },
    {
      "primitives": [
        {
          "attributes": {
            "POSITION": 8,
            "NORMAL": 9,
            "TEXCOORD_0": 10
          },
          "indices": 11,
          "mode": 4,
          "material": 2
        }
      ]
    },
    {
      "primitives": [
        {
          "attributes": {
            "POSITION": 12,
            "NORMAL": 14,
            "TEXCOORD_0": 13
          },
          "indices": 15,
          "mode": 4,
          "material": 3
        }
      ]
    }
  ],
  "nodes": [
    {
      "children": [
        1,
        2,
        3
      ],
      "name": "MarkerData"
    },
    {
      "extras": {
        "opensimType": "ExperimentalMarker",
        "layer": "data",
        "name": "r_acromion"
      },
      "mesh": 2,
      "translation": [
        -0.01305452443,
        0.8395054755700001,
        0.1695054756
      ],
      "scale": [
        0.01,
        0.01,
        0.01
      ],
      "name": "r_acromion"
    },
    {
      "extras": {
        "opensimType": "ExperimentalMarker",
        "layer": "data",
        "name": "r_humerus_epicondyle"
      },
      "mesh": 2,
      "translation": [
        -0.01255937962,
        0.5025856204,
        0.19998562039999998
      ],
      "scale": [
        0.01,
        0.01,
        0.01
      ],
      "name": "r_humerus_epicondyle"
    },
    {
      "extras": {
        "opensimType": "ExperimentalMarker",
        "layer": "data",
        "name": "r_radius_styloid"
      },
      "mesh": 2,
      "translation": [
        -0.013124683409999999,
        0.2664303173,
        0.2514203173
      ],
      "scale": [
        0.01,
        0.01,
        0.01
      ],
      "name": "r_radius_styloid"
    }
  ],
  "scene": 0,
  "scenes": [
    {
      "name": "Scene",
      "nodes": [
        0
      ]
    }
  ]
}