{
  "asset": {
    "version": "2.0",
    "generator": "THREE.GLTFExporter"
  },
  "scenes": [
    {
      "name": "Scene",
      "nodes": [
        1,
        2,
        3,
        25
      ],
      "extras": "NonEditable"
    }
  ],
  "scene": 0,
  "nodes": [
    {
      "matrix": [
        1,
        0,
        0,
        0,
        0,
        1,
        0,
        0,
        0,
        0,
        1,
        0,
        142.53616877664345,
        1400,
        -539.0486780963134,
        1
      ],
      "name": "SunLight",
      "extensions": {
        "KHR_lights_punctual": {
          "light": 0
        }
      }
    },
    {
      "name": "Environment",
      "extras": "NonEditable",
      "children": [
        0
      ]
    },
    {
      "name": "AmbientLight"
    },
    {
      "matrix": [
        1,
        0,
        0,
        0,
        0,
        1,
        0,
        0,
        0,
        0,
        1,
        0,
        719.2766575732074,
        815.028657725993,
        1535.9910707912068,
        1
      ],
      "name": "CameraLight",
      "extensions": {
        "KHR_lights_punctual": {
          "light": 1
        }
      }
    },
    {
      "matrix": [
        1.04599,
        0,
        0,
        0,
        0,
        1.04599,
        0,
        0,
        0,
        0,
        1.04599,
        0,
        0,
        0,
        0,
        1
      ],
      "name": "/bodyset/pelvis/pelvis_geom_1",
      "extras": "NonEditable",
      "mesh": 0
    },
    {
      "matrix": [
        1.04599,
        0,
        0,
        0,
        0,
        1.04599,
        0,
        0,
        0,
        0,
        1.04599,
        0,
        0,
        0,
        0,
        1
      ],
      "name": "/bodyset/pelvis/pelvis_geom_2",
      "extras": "NonEditable",
      "mesh": 1
    },
    {
      "matrix": [
        1.04599,
        0,
        0,
        0,
        0,
        1.04599,
        0,
        0,
        0,
        0,
        1.04599,
        0,
        0,
        0,
        0,
        1
      ],
      "name": "/bodyset/pelvis/pelvis_geom_3",
      "extras": "NonEditable",
      "mesh": 2
    },
    {
      "matrix": [
        1,
        0,
        0,
        0,
        0,
        1,
        0,
        0,
        0,
        0,
        1,
        0,
        0,
        1100,
        0,
        1
      ],
      "name": "/bodyset/pelvis",
      "extras": "NonEditable",
      "children": [
        4,
        5,
        6
      ]
    },
    {
      "matrix": [
        1.17378,
        0,
        0,
        0,
        0,
        1.17378,
        0,
        0,
        0,
        0,
        1.17378,
        0,
        0,
        0,
        0,
        1
      ],
      "name": "/bodyset/femur_r/femur_r_geom_1",
      "extras": "NonEditable",
      "mesh": 3
    },
    {
      "matrix": [
        1,
        0,
        0,
        0,
        0,
        1,
        0,
        0,
        0,
        0,
        1,
        0,
        -73.9512,
        1030.8603,
        87.3398,
        1
      ],
      "name": "/bodyset/femur_r",
      "extras": "NonEditable",
      "children": [
        8
      ]
    },
    {
      "matrix": [
        1.12373,
        0,
        0,
        0,
        0,
        1.12373,
        0,
        0,
        0,
        0,
        1.12373,
        0,
        0,
        0,
        0,
        1
      ],
      "name": "/bodyset/tibia_r/tibia_r_geom_1",
      "extras": "NonEditable",
      "mesh": 4
    },
    {
      "matrix": [
        1.12373,
        0,
        0,
        0,
        0,
        1.12373,
        0,
        0,
        0,
        0,
        1.12373,
        0,
        0,
        0,
        0,
        1
      ],
      "name": "/bodyset/tibia_r/tibia_r_geom_2",
      "extras": "NonEditable",
      "mesh": 5
    },
    {
      "matrix": [
        1,
        -1.7085304810060238e-9,
        0,
        0,
        1.7085304810060238e-9,
        1,
        0,
        0,
        0,
        0,
        1,
        0,
        -79.23303064511593,
        566.2540698668292,
        87.3398,
        1
      ],
      "name": "/bodyset/tibia_r",
      "extras": "NonEditable",
      "children": [
        10,
        11
      ]
    },
    {
      "matrix": [
        1.09544,
        0,
        0,
        0,
        0,
        1.09544,
        0,
        0,
        0,
        0,
        1.09544,
        0,
        0,
        0,
        0,
        1
      ],
      "name": "/bodyset/patella_r/patella_r_geom_1",
      "extras": "NonEditable",
      "mesh": 6
    },
    {
      "matrix": [
        0.9999993165642225,
        -0.0011691326219839698,
        0,
        0,
        0.0011691326219839698,
        0.9999993165642225,
        0,
        0,
        0,
        0,
        1,
        0,
        -23.496130687506472,
        540.7454697711814,
        87.3398,
        1
      ],
      "name": "/bodyset/patella_r",
      "extras": "NonEditable",
      "children": [
        13
      ]
    },
    {
      "matrix": [
        1.26634,
        0,
        0,
        0,
        0,
        1.26634,
        0,
        0,
        0,
        0,
        1.26634,
        0,
        0,
        0,
        0,
        1
      ],
      "name": "/bodyset/talus_r/talus_r_geom_1",
      "extras": "NonEditable",
      "mesh": 7
    },
    {
      "matrix": [
        1,
        -1.7085304810060238e-9,
        0,
        0,
        1.7085304810060238e-9,
        1,
        0,
        0,
        0,
        0,
        1,
        0,
        -79.23303147068299,
        83.05106986682925,
        87.3398,
        1
      ],
      "name": "/bodyset/talus_r",
      "extras": "NonEditable",
      "children": [
        15
      ]
    },
    {
      "matrix": [
        1.02693,
        0,
        0,
        0,
        0,
        1.02693,
        0,
        0,
        0,
        0,
        1.02693,
        0,
        0,
        0,
        0,
        1
      ],
      "name": "/bodyset/calcn_r/calcn_r_geom_1",
      "extras": "NonEditable",
      "mesh": 8
    },
    {
      "matrix": [
        1,
        -1.7085304810060238e-9,
        0,
        0,
        1.7085304810060238e-9,
        1,
        0,
        0,
        0,
        0,
        1,
        0,
        -141.28383156155357,
        29.864669972844933,
        97.47049999999999,
        1
      ],
      "name": "/bodyset/calcn_r",
      "extras": "NonEditable",
      "children": [
        17
      ]
    },
    {
      "matrix": [
        1.02693,
        0,
        0,
        0,
        0,
        1.02693,
        0,
        0,
        0,
        0,
        1.02693,
        0,
        0,
        0,
        0,
        1
      ],
      "name": "/bodyset/toes_r/toes_r_geom_1",
      "extras": "NonEditable",
      "mesh": 9
    },
    {
      "matrix": [
        1,
        -1.7085304810060238e-9,
        0,
        0,
        1.7085304810060238e-9,
        1,
        0,
        0,
        0,
        0,
        1,
        0,
        42.53616843493735,
        27.810809658782862,
        98.49741999999999,
        1
      ],
      "name": "/bodyset/toes_r",
      "extras": "NonEditable",
      "children": [
        19
      ]
    },
    {
      "name": "/ground",
      "extras": "NonEditable",
      "children": [
        7,
        9,
        12,
        14,
        16,
        18,
        20
      ]
    },
    {
      "matrix": [
        1,
        0,
        0,
        0,
        0,
        1,
        0,
        0,
        0,
        0,
        1,
        0,
        27.292156976898994,
        650,
        79.72437095184326,
        1
      ],
      "name": "ModelCenter"
    },
    {
      "matrix": [
        1,
        0,
        0,
        0,
        0,
        1,
        0,
        0,
        0,
        0,
        1,
        0,
        27.292156976898994,
        1400,
        79.72437095184326,
        1
      ],
      "name": "ModelLight",
      "extensions": {
        "KHR_lights_punctual": {
          "light": 2
        }
      }
    },
    {
      "name": "leg39",
      "children": [
        21,
        22,
        23
      ]
    },
    {
      "name": "Models",
      "children": [
        24
      ]
    }
  ],
  "extensions": {
    "KHR_lights_punctual": {
      "lights": [
        {
          "name": "SunLight",
          "color": [
            1,
            0.911407500404371,
            0.7874122893910657
          ],
          "intensity": 0.25,
          "type": "directional"
        },
        {
          "name": "CameraLight",
          "color": [
            0.47353149613845735,
            0.47353149613845735,
            0.47353149613845735
          ],
          "intensity": 1,
          "type": "directional"
        },
        {
          "name": "ModelLight",
          "color": [
            1,
            1,
            1
          ],
          "intensity": 0.25,
          "type": "point"
        }
      ]
    }
  },
  "bufferViews": [
    {
      "buffer": 0,
      "byteOffset": 0,
      "byteLength": 2304,
      "target": 34962,
      "byteStride": 12
    },
    {
      "buffer": 0,
      "byteOffset": 2304,
      "byteLength": 2304,
      "target": 34962,
      "byteStride": 12
    },
    {
      "buffer": 0,
      "byteOffset": 4608,
      "byteLength": 2280,
      "target": 34963
    },
    {
      "buffer": 0,
      "byteOffset": 6888,
      "byteLength": 1500,
      "target": 34962,
      "byteStride": 12
    },
    {
      "buffer": 0,
      "byteOffset": 8388,
      "byteLength": 1500,
      "target": 34962,
      "byteStride": 12
    },
    {
      "buffer": 0,
      "byteOffset": 9888,
      "byteLength": 1452,
      "target": 34963
    },
    {
      "buffer": 0,
      "byteOffset": 11340,
      "byteLength": 1500,
      "target": 34962,
      "byteStride": 12
    },
    {
      "buffer": 0,
      "byteOffset": 12840,
      "byteLength": 1500,
      "target": 34962,
      "byteStride": 12
    },
    {
      "buffer": 0,
      "byteOffset": 14340,
      "byteLength": 1452,
      "target": 34963
    },
    {
      "buffer": 0,
      "byteOffset": 15792,
      "byteLength": 5472,
      "target": 34962,
      "byteStride": 12
    },
    {
      "buffer": 0,
      "byteOffset": 21264,
      "byteLength": 5472,
      "target": 34962,
      "byteStride": 12
    },
    {
      "buffer": 0,
      "byteOffset": 26736,
      "byteLength": 5448,
      "target": 34963
    },
    {
      "buffer": 0,
      "byteOffset": 32184,
      "byteLength": 1740,
      "target": 34962,
      "byteStride": 12
    },
    {
      "buffer": 0,
      "byteOffset": 33924,
      "byteLength": 1740,
      "target": 34962,
      "byteStride": 12
    },
    {
      "buffer": 0,
      "byteOffset": 35664,
      "byteLength": 1716,
      "target": 34963
    },
    {
      "buffer": 0,
      "byteOffset": 37380,
      "byteLength": 1464,
      "target": 34962,
      "byteStride": 12
    },
    {
      "buffer": 0,
      "byteOffset": 38844,
      "byteLength": 1464,
      "target": 34962,
      "byteStride": 12
    },
    {
      "buffer": 0,
      "byteOffset": 40308,
      "byteLength": 1440,
      "target": 34963
    },
    {
      "buffer": 0,
      "byteOffset": 41748,
      "byteLength": 864,
      "target": 34962,
      "byteStride": 12
    },
    {
      "buffer": 0,
      "byteOffset": 42612,
      "byteLength": 864,
      "target": 34962,
      "byteStride": 12
    },
    {
      "buffer": 0,
      "byteOffset": 43476,
      "byteLength": 840,
      "target": 34963
    },
    {
      "buffer": 0,
      "byteOffset": 44316,
      "byteLength": 1188,
      "target": 34962,
      "byteStride": 12
    },
    {
      "buffer": 0,
      "byteOffset": 45504,
      "byteLength": 1188,
      "target": 34962,
      "byteStride": 12
    },
    {
      "buffer": 0,
      "byteOffset": 46692,
      "byteLength": 1164,
      "target": 34963
    },
    {
      "buffer": 0,
      "byteOffset": 47856,
      "byteLength": 12000,
      "target": 34962,
      "byteStride": 12
    },
    {
      "buffer": 0,
      "byteOffset": 59856,
      "byteLength": 12000,
      "target": 34962,
      "byteStride": 12
    },
    {
      "buffer": 0,
      "byteOffset": 71856,
      "byteLength": 11732,
      "target": 34963
    },
    {
      "buffer": 0,
      "byteOffset": 83588,
      "byteLength": 11496,
      "target": 34962,
      "byteStride": 12
    },
    {
      "buffer": 0,
      "byteOffset": 95084,
      "byteLength": 11496,
      "target": 34962,
      "byteStride": 12
    },
    {
      "buffer": 0,
      "byteOffset": 106580,
      "byteLength": 11160,
      "target": 34963
    }
  ],
  "buffers": [
    {
      "byteLength": 117740,
      "uri": "data:application/octet-stream;base64,"
    }
  ],
  "accessors": [
    {
      "bufferView": 0,
      "componentType": 5126,
      "count": 192,
      "max": [
        0.9994171857833862,
        0.9968926906585693,
        0.9852918386459351
      ],
      "min": [
        -0.9997562766075134,
        -0.9940384030342102,
        -0.9623299241065979
      ],
      "type": "VEC3"
    },
    {
      "bufferView": 1,
      "componentType": 5126,
      "count": 192,
      "max": [
        -73.51100158691406,
        80.0260009765625,
        47.18199920654297
      ],
      "min": [
        -179.68800354003906,
        -42.26300048828125,
        -47.18199920654297
      ],
      "type": "VEC3"
    },
    {
      "bufferView": 2,
      "componentType": 5123,
      "count": 1140,
      "max": [
        191
      ],
      "min": [
        0
      ],
      "type": "SCALAR"
    },
    {
      "bufferView": 3,
      "componentType": 5126,
      "count": 125,
      "max": [
        0.9784375429153442,
        0.9525038599967957,
        0.9931254386901855
      ],
      "min": [
        -0.9635571837425232,
        -0.9863777756690979,
        -0.9998441934585571
      ],
      "type": "VEC3"
    },
    {
      "bufferView": 4,
      "componentType": 5126,
      "count": 125,
      "max": [
        0,
        93.83200073242188,
        132.93499755859375
      ],
      "min": [
        -142.75599670410156,
        -120.87000274658203,
        -0.35100001096725464
      ],
      "type": "VEC3"
    },
    {
      "bufferView": 5,
      "componentType": 5123,
      "count": 726,
      "max": [
        124
      ],
      "min": [
        0
      ],
      "type": "SCALAR"
    },
    {
      "bufferView": 6,
      "componentType": 5126,
      "count": 125,
      "max": [
        0.9784375429153442,
        0.9525038599967957,
        0.9998441934585571
      ],
      "min": [
        -0.9635571837425232,
        -0.9863777756690979,
        -0.9931254386901855
      ],
      "type": "VEC3"
    },
    {
      "bufferView": 7,
      "componentType": 5126,
      "count": 125,
      "max": [
        0,
        93.83200073242188,
        0.35100001096725464
      ],
      "min": [
        -142.75599670410156,
        -120.87000274658203,
        -132.93499755859375
      ],
      "type": "VEC3"
    },
    {
      "bufferView": 8,
      "componentType": 5123,
      "count": 726,
      "max": [
        124
      ],
      "min": [
        0
      ],
      "type": "SCALAR"
    },
    {
      "bufferView": 9,
      "componentType": 5126,
      "count": 456,
      "max": [
        0.994194507598877,
        0.9873917102813721,
        0.997865617275238
      ],
      "min": [
        -0.9978411793708801,
        -0.9952982068061829,
        -0.9990609884262085
      ],
      "type": "VEC3"
    },
    {
      "bufferView": 10,
      "componentType": 5126,
      "count": 456,
      "max": [
        35.44599914550781,
        22.33099937438965,
        61.96900177001953
      ],
      "min": [
        -36.93899917602539,
        -430.2850036621094,
        -38.29800033569336
      ],
      "type": "VEC3"
    },
    {
      "bufferView": 11,
      "componentType": 5123,
      "count": 2724,
      "max": [
        455
      ],
      "min": [
        0
      ],
      "type": "SCALAR"
    },
    {
      "bufferView": 12,
      "componentType": 5126,
      "count": 145,
      "max": [
        0.9576833248138428,
        0.9999732971191406,
        0.9995743632316589
      ],
      "min": [
        -0.9859801530838013,
        -0.9998143315315247,
        -0.9999487996101379
      ],
      "type": "VEC3"
    },
    {
      "bufferView": 13,
      "componentType": 5126,
      "count": 145,
      "max": [
        39,
        -28.520000457763672,
        38.27299880981445
      ],
      "min": [
        -31.35099983215332,
        -415.2690124511719,
        -29.7189998626709
      ],
      "type": "VEC3"
    },
    {
      "bufferView": 14,
      "componentType": 5123,
      "count": 858,
      "max": [
        144
      ],
      "min": [
        0
      ],
      "type": "SCALAR"
    },
    {
      "bufferView": 15,
      "componentType": 5126,
      "count": 122,
      "max": [
        0.9983547329902649,
        0.7812217473983765,
        0.9987866282463074
      ],
      "min": [
        -0.9998244643211365,
        -0.6750598549842834,
        -0.9998913407325745
      ],
      "type": "VEC3"
    },
    {
      "bufferView": 16,
      "componentType": 5126,
      "count": 122,
      "max": [
        9.35200023651123,
        -56.6150016784668,
        48.900001525878906
      ],
      "min": [
        -19.92099952697754,
        -431.822998046875,
        20.010000228881836
      ],
      "type": "VEC3"
    },
    {
      "bufferView": 17,
      "componentType": 5123,
      "count": 720,
      "max": [
        121
      ],
      "min": [
        0
      ],
      "type": "SCALAR"
    },
    {
      "bufferView": 18,
      "componentType": 5126,
      "count": 72,
      "max": [
        0.9778687953948975,
        0.9591730833053589,
        0.9692208170890808
      ],
      "min": [
        -0.9877297282218933,
        -0.9974946975708008,
        -0.974063515663147
      ],
      "type": "VEC3"
    },
    {
      "bufferView": 19,
      "componentType": 5126,
      "count": 72,
      "max": [
        15.406999588012695,
        52.91999816894531,
        26.67300033569336
      ],
      "min": [
        -10.73799991607666,
        0,
        -24.708999633789062
      ],
      "type": "VEC3"
    },
    {
      "bufferView": 20,
      "componentType": 5123,
      "count": 420,
      "max": [
        71
      ],
      "min": [
        0
      ],
      "type": "SCALAR"
    },
    {
      "bufferView": 21,
      "componentType": 5126,
      "count": 99,
      "max": [
        0.9632729887962341,
        0.9992058277130127,
        0.9679368138313293
      ],
      "min": [
        -0.9850552082061768,
        -0.9964811205863953,
        -0.9970207214355469
      ],
      "type": "VEC3"
    },
    {
      "bufferView": 22,
      "componentType": 5126,
      "count": 99,
      "max": [
        28.60700035095215,
        13.894000053405762,
        20.40999984741211
      ],
      "min": [
        -17.534000396728516,
        -16.224000930786133,
        -21.141000747680664
      ],
      "type": "VEC3"
    },
    {
      "bufferView": 23,
      "componentType": 5123,
      "count": 582,
      "max": [
        98
      ],
      "min": [
        0
      ],
      "type": "SCALAR"
    },
    {
      "bufferView": 24,
      "componentType": 5126,
      "count": 1000,
      "max": [
        0.9999088644981384,
        1,
        0.9999176859855652
      ],
      "min": [
        -0.9967811107635498,
        -1,
        -0.9984256029129028
      ],
      "type": "VEC3"
    },
    {
      "bufferView": 25,
      "componentType": 5126,
      "count": 1000,
      "max": [
        183.81700134277344,
        43.03499984741211,
        45.63100051879883
      ],
      "min": [
        -9.800000190734863,
        -9.83899974822998,
        -39.23500061035156
      ],
      "type": "VEC3"
    },
    {
      "bufferView": 26,
      "componentType": 5123,
      "count": 5865,
      "max": [
        999
      ],
      "min": [
        0
      ],
      "type": "SCALAR"
    },
    {
      "bufferView": 27,
      "componentType": 5126,
      "count": 958,
      "max": [
        0.9712662100791931,
        0.9943559169769287,
        0.9971287846565247
      ],
      "min": [
        -0.9988284707069397,
        -0.9939815998077393,
        -0.9998888969421387
      ],
      "type": "VEC3"
    },
    {
      "bufferView": 28,
      "componentType": 5126,
      "count": 958,
      "max": [
        76.91799926757812,
        8.050000190734863,
        54.198001861572266
      ],
      "min": [
        -35.98400115966797,
        -10.135000228881836,
        -37.64699935913086
      ],
      "type": "VEC3"
    },
    {
      "bufferView": 29,
      "componentType": 5123,
      "count": 5580,
      "max": [
        957
      ],
      "min": [
        0
      ],
      "type": "SCALAR"
    }
  ],
  "materials": [
    {
      "pbrMetallicRoughness": {
        "metallicFactor": 0,
        "roughnessFactor": 1
      }
    },
    {
      "pbrMetallicRoughness": {
        "metallicFactor": 0,
        "roughnessFactor": 1
      },
      "alphaMode": "BLEND",
      "doubleSided": true
    },
    {
      "pbrMetallicRoughness": {
        "metallicFactor": 0,
        "roughnessFactor": 1
      },
      "alphaMode": "BLEND",
      "doubleSided": true
    },
    {
      "pbrMetallicRoughness": {
        "metallicFactor": 0,
        "roughnessFactor": 1
      },
      "alphaMode": "BLEND",
      "doubleSided": true
    },
    {
      "pbrMetallicRoughness": {
        "metallicFactor": 0,
        "roughnessFactor": 1
      },
      "alphaMode": "BLEND",
      "doubleSided": true
    },
    {
      "pbrMetallicRoughness": {
        "metallicFactor": 0,
        "roughnessFactor": 1
      },
      "alphaMode": "BLEND",
      "doubleSided": true
    },
    {
      "pbrMetallicRoughness": {
        "metallicFactor": 0,
        "roughnessFactor": 1
      },
      "alphaMode": "BLEND",
      "doubleSided": true
    },
    {
      "pbrMetallicRoughness": {
        "metallicFactor": 0,
        "roughnessFactor": 1
      },
      "alphaMode": "BLEND",
      "doubleSided": true
    },
    {
      "pbrMetallicRoughness": {
        "metallicFactor": 0,
        "roughnessFactor": 1
      },
      "alphaMode": "BLEND",
      "doubleSided": true
    },
    {
      "pbrMetallicRoughness": {
        "metallicFactor": 0,
        "roughnessFactor": 1
      },
      "alphaMode": "BLEND",
      "doubleSided": true
    }
  ],
  "meshes": [
    {
      "primitives": [
        {
          "mode": 4,
          "attributes": {
            "NORMAL": 0,
            "POSITION": 1
          },
          "indices": 2,
          "material": 0
        }
      ]
    },
    {
      "primitives": [
        {
          "mode": 4,
          "attributes": {
            "NORMAL": 3,
            "POSITION": 4
          },
          "indices": 5,
          "material": 0
        }
      ]
    },
    {
      "primitives": [
        {
          "mode": 4,
          "attributes": {
            "NORMAL": 6,
            "POSITION": 7
          },
          "indices": 8,
          "material": 0
        }
      ]
    },
    {
      "primitives": [
        {
          "mode": 4,
          "attributes": {
            "NORMAL": 9,
            "POSITION": 10
          },
          "indices": 11,
          "material": 0
        }
      ]
    },
    {
      "primitives": [
        {
          "mode": 4,
          "attributes": {
            "NORMAL": 12,
            "POSITION": 13
          },
          "indices": 14,
          "material": 0
        }
      ]
    },
    {
      "primitives": [
        {
          "mode": 4,
          "attributes": {
            "NORMAL": 15,
            "POSITION": 16
          },
          "indices": 17,
          "material": 0
        }
      ]
    },
    {
      "primitives": [
        {
          "mode": 4,
          "attributes": {
            "NORMAL": 18,
            "POSITION": 19
          },
          "indices": 20,
          "material": 0
        }
      ]
    },
    {
      "primitives": [
        {
          "mode": 4,
          "attributes": {
            "NORMAL": 21,
            "POSITION": 22
          },
          "indices": 23,
          "material": 0
        }
      ]
    },
    {
      "primitives": [
        {
          "mode": 4,
          "attributes": {
            "NORMAL": 24,
            "POSITION": 25
          },
          "indices": 26,
          "material": 0
        }
      ]
    },
    {
      "primitives": [
        {
          "mode": 4,
          "attributes": {
            "NORMAL": 27,
            "POSITION": 28
          },
          "indices": 29,
          "material": 0
        }
      ]
    }
  ],
  "extensionsUsed": [
    "KHR_lights_punctual"
  ]
}