{
	"asset":{
		"generator":"Khronos glTF Blender I/O v3.5.30",
		"version":"2.0"
	},
	"scene":0,
	"scenes":[
		{
			"name":"Scene",
			"nodes":[
				0,
				1,
				11
			]
		}
	],
	"nodes":[
		{
			"name":"Environment"
		},
		{
			"name":"AmbientLight"
		},
		{
			"mesh":0,
			"name":"/bodyset/rod1/rod1_geom_2",
			"scale":[
				0.10000000149011612,
				0.10000000149011612,
				0.10000000149011612
			],
			"translation":[
				1.5258785424521193e-05,
				3.0517578125e-05,
				0
			]
		},
		{
			"mesh":1,
			"name":"/bodyset/rod1/rod1_geom_frame_1/rod1_geom_1",
			"scale":[
				0.019999999552965164,
				0.4999999701976776,
				0.019999999552965164
			],
			"translation":[
				1.5258785424521193e-05,
				250,
				0
			]
		},
		{
			"children":[
				2,
				3
			],
			"name":"/bodyset/rod1",
			"rotation":[
				0,
				0,
				-0.3826834559440613,
				0.9238795638084412
			],
			"translation":[
				-353.5533752441406,
				-353.55340576171875,
				0
			]
		},
		{
			"mesh":2,
			"name":"/bodyset/rod2/rod2_geom_2",
			"scale":[
				0.10000000149011612,
				0.10000000149011612,
				0.10000000149011612
			],
			"translation":[
				1.52587890625e-05,
				2.6702880859375e-05,
				0
			]
		},
		{
			"mesh":3,
			"name":"/bodyset/rod2/rod2_geom_frame_1/rod2_geom_1",
			"scale":[
				0.019999999552965164,
				0.5,
				0.019999999552965164
			],
			"translation":[
				3.0517578125e-05,
				250.00003051757812,
				0
			]
		},
		{
			"children":[
				5,
				6
			],
			"name":"/bodyset/rod2",
			"rotation":[
				0,
				0,
				-0.7933533787727356,
				0.6087613701820374
			],
			"translation":[
				-836.5162963867188,
				-224.1438751220703,
				0
			]
		},
		{
			"children":[
				4,
				7
			],
			"name":"/ground"
		},
		{
			"name":"ModelCenter",
			"translation":[
				-307.350830078125,
				-199.25119018554688,
				75
			]
		},
		{
			"children":[
				8,
				9
			],
			"name":"double_pendulum"
		},
		{
			"children":[
				10
			],
			"name":"Models"
		}
	],
	"materials":[
		{
			"alphaMode":"OPAQUE",
			"doubleSided":true,
			"name":"Material_2",
			"pbrMetallicRoughness":{
				"metallicFactor":0
			}
		},
		{
			"alphaMode":"OPAQUE",
			"doubleSided":true,
			"name":"Material_1",
			"pbrMetallicRoughness":{
				"metallicFactor":0
			}
		},
		{
			"alphaMode":"OPAQUE",
			"doubleSided":true,
			"name":"Material_4",
			"pbrMetallicRoughness":{
				"metallicFactor":0
			}
		},
		{
			"alphaMode":"OPAQUE",
			"doubleSided":true,
			"name":"Material_3",
			"pbrMetallicRoughness":{
				"metallicFactor":0
			}
		}
	],
	"meshes":[
		{
			"name":"Mesh_2",
			"primitives":[
				{
					"attributes":{
						"POSITION":0,
						"NORMAL":1
					},
					"indices":2,
					"material":0
				}
			]
		},
		{
			"name":"Mesh_1",
			"primitives":[
				{
					"attributes":{
						"POSITION":3,
						"NORMAL":4
					},
					"indices":5,
					"material":1
				}
			]
		},
		{
			"name":"Mesh_4",
			"primitives":[
				{
					"attributes":{
						"POSITION":6,
						"NORMAL":7
					},
					"indices":2,
					"material":2
				}
			]
		},
		{
			"name":"Mesh_3",
			"primitives":[
				{
					"attributes":{
						"POSITION":8,
						"NORMAL":9
					},
					"indices":5,
					"material":3
				}
			]
		}
	],
	"accessors":[
		{
			"bufferView":0,
			"componentType":5126,
			"count":362,
			"max":[
				498.292236328125,
				498.292236328125,
				500
			],
			"min":[
				-498.292236328125,
				-498.292236328125,
				-500
			],
			"type":"VEC3"
		},
		{
			"bufferView":1,
			"componentType":5126,
			"count":362,
			"type":"VEC3"
		},
		{
			"bufferView":2,
			"componentType":5123,
			"count":2160,
			"type":"SCALAR"
		},
		{
			"bufferView":3,
			"componentType":5126,
			"count":80,
			"max":[
				500,
				500,
				500
			],
			"min":[
				-500,
				-500,
				-500
			],
			"type":"VEC3"
		},
		{
			"bufferView":4,
			"componentType":5126,
			"count":80,
			"type":"VEC3"
		},
		{
			"bufferView":5,
			"componentType":5123,
			"count":228,
			"type":"SCALAR"
		},
		{
			"bufferView":6,
			"componentType":5126,
			"count":362,
			"max":[
				498.292236328125,
				498.292236328125,
				500
			],
			"min":[
				-498.292236328125,
				-498.292236328125,
				-500
			],
			"type":"VEC3"
		},
		{
			"bufferView":7,
			"componentType":5126,
			"count":362,
			"type":"VEC3"
		},
		{
			"bufferView":8,
			"componentType":5126,
			"count":80,
			"max":[
				500,
				500,
				500
			],
			"min":[
				-500,
				-500,
				-500
			],
			"type":"VEC3"
		},
		{
			"bufferView":9,
			"componentType":5126,
			"count":80,
			"type":"VEC3"
		}
	],
	"bufferViews":[
		{
			"buffer":0,
			"byteLength":4344,
			"byteOffset":0,
			"target":34962
		},
		{
			"buffer":0,
			"byteLength":4344,
			"byteOffset":4344,
			"target":34962
		},
		{
			"buffer":0,
			"byteLength":4320,
			"byteOffset":8688,
			"target":34963
		},
		{
			"buffer":0,
			"byteLength":960,
			"byteOffset":13008,
			"target":34962
		},
		{
			"buffer":0,
			"byteLength":960,
			"byteOffset":13968,
			"target":34962
		},
		{
			"buffer":0,
			"byteLength":456,
			"byteOffset":14928,
			"target":34963
		},
		{
			"buffer":0,
			"byteLength":4344,
			"byteOffset":15384,
			"target":34962
		},
		{
			"buffer":0,
			"byteLength":4344,
			"byteOffset":19728,
			"target":34962
		},
		{
			"buffer":0,
			"byteLength":960,
			"byteOffset":24072,
			"target":34962
		},
		{
			"buffer":0,
			"byteLength":960,
			"byteOffset":25032,
			"target":34962
		}
	],
	"buffers":[
		{
			"byteLength":25992,
			"uri":"data:application/octet-stream;base64,"
		}
	]
}
