{
  "asset": {
    "version": "2.0",
    "generator": "THREE.GLTFExporter"
  },
  "scenes": [
    {
      "name": "Scene",
      "nodes": [
        1,
        2,
        3,
        4,
        15
      ],
      "extras": "NonEditable"
    }
  ],
  "scene": 0,
  "nodes": [
    {
      "matrix": [
        1,
        0,
        0,
        0,
        0,
        1,
        0,
        0,
        0,
        0,
        1,
        0,
        182.84271247461896,
        1400,
        -450,
        1
      ],
      "name": "SunLight",
      "extensions": {
        "KHR_lights_punctual": {
          "light": 0
        }
      }
    },
    {
      "name": "Environment",
      "extras": "NonEditable",
      "children": [
        0
      ]
    },
    {
      "name": "AmbientLight"
    },
    {
      "matrix": [
        1,
        0,
        0,
        0,
        0,
        1,
        0,
        0,
        0,
        0,
        1,
        0,
        416.5546812788788,
        1515.9967513864835,
        2780.993894937493,
        1
      ],
      "name": "CameraLight",
      "extensions": {
        "KHR_lights_punctual": {
          "light": 1
        }
      }
    },
    {
      "matrix": [
        500,
        0,
        0,
        0,
        0,
        1.1102230246251565e-13,
        -500,
        0,
        0,
        500,
        1.1102230246251565e-13,
        0,
        0,
        -0.01,
        0,
        1
      ],
      "name": "GroundPlane",
      "extras": "NonEditable",
      "mesh": 0
    },
    {
      "matrix": [
        0.02,
        0,
        0,
        0,
        0,
        0.5,
        0,
        0,
        0,
        0,
        0.02,
        0,
        0,
        250,
        0,
        1
      ],
      "name": "/bodyset/rod1/rod1_geom_frame_1/rod1_geom_1",
      "extras": "NonEditable",
      "mesh": 1
    },
    {
      "matrix": [
        0.1,
        0,
        0,
        0,
        0,
        0.1,
        0,
        0,
        0,
        0,
        0.1,
        0,
        0,
        0,
        0,
        1
      ],
      "name": "/bodyset/rod1/rod1_geom_2",
      "extras": "NonEditable",
      "mesh": 2
    },
    {
      "matrix": [
        0.7071067835889061,
        -0.7071067787841887,
        0,
        0,
        0.7071067787841887,
        0.7071067835889061,
        0,
        0,
        0,
        0,
        1,
        0,
        -353.55338939209435,
        746.446608205547,
        0,
        1
      ],
      "name": "/bodyset/rod1",
      "extras": "NonEditable",
      "children": [
        5,
        6
      ]
    },
    {
      "matrix": [
        0.02,
        0,
        0,
        0,
        0,
        0.5,
        0,
        0,
        0,
        0,
        0.02,
        0,
        0,
        250,
        0,
        1
      ],
      "name": "/bodyset/rod2/rod2_geom_frame_1/rod2_geom_1",
      "extras": "NonEditable",
      "mesh": 3
    },
    {
      "matrix": [
        0.1,
        0,
        0,
        0,
        0,
        0.1,
        0,
        0,
        0,
        0,
        0.1,
        0,
        0,
        0,
        0,
        1
      ],
      "name": "/bodyset/rod2/rod2_geom_2",
      "extras": "NonEditable",
      "mesh": 4
    },
    {
      "matrix": [
        -0.25881904066501304,
        -0.9659258274780949,
        0,
        0,
        0.9659258274780949,
        -0.25881904066501304,
        0,
        0,
        0,
        0,
        1,
        0,
        -836.5163031311417,
        875.8561285380536,
        0,
        1
      ],
      "name": "/bodyset/rod2",
      "extras": "NonEditable",
      "children": [
        8,
        9
      ]
    },
    {
      "name": "/ground",
      "extras": "NonEditable",
      "children": [
        7,
        10
      ]
    },
    {
      "matrix": [
        1,
        0,
        0,
        0,
        0,
        1,
        0,
        0,
        0,
        0,
        1,
        0,
        -307.35083829218263,
        650,
        75,
        1
      ],
      "name": "ModelCenter"
    },
    {
      "matrix": [
        1,
        0,
        0,
        0,
        0,
        1,
        0,
        0,
        0,
        0,
        1,
        0,
        -307.35083829218263,
        1400,
        75,
        1
      ],
      "name": "ModelLight",
      "extensions": {
        "KHR_lights_punctual": {
          "light": 2
        }
      }
    },
    {
      "name": "double_pendulum",
      "children": [
        11,
        12,
        13
      ]
    },
    {
      "name": "Models",
      "children": [
        14
      ]
    }
  ],
  "extensions": {
    "KHR_lights_punctual": {
      "lights": [
        {
          "name": "SunLight",
          "color": [
            1,
            0.911407500404371,
            0.7874122893910657
          ],
          "intensity": 0.25,
          "type": "directional"
        },
        {
          "name": "CameraLight",
          "color": [
            0.47353149613845735,
            0.47353149613845735,
            0.47353149613845735
          ],
          "intensity": 1,
          "type": "directional"
        },
        {
          "name": "ModelLight",
          "color": [
            1,
            1,
            1
          ],
          "intensity": 0.25,
          "type": "point"
        }
      ]
    }
  },
  "bufferViews": [
    {
      "buffer": 0,
      "byteOffset": 0,
      "byteLength": 48,
      "target": 34962,
      "byteStride": 12
    },
    {
      "buffer": 0,
      "byteOffset": 48,
      "byteLength": 48,
      "target": 34962,
      "byteStride": 12
    },
    {
      "buffer": 0,
      "byteOffset": 96,
      "byteLength": 32,
      "target": 34962,
      "byteStride": 8
    },
    {
      "buffer": 0,
      "byteOffset": 128,
      "byteLength": 12,
      "target": 34963
    },
    {
      "buffer": 0,
      "byteOffset": 140,
      "byteLength": 960,
      "target": 34962,
      "byteStride": 12
    },
    {
      "buffer": 0,
      "byteOffset": 1100,
      "byteLength": 960,
      "target": 34962,
      "byteStride": 12
    },
    {
      "buffer": 0,
      "byteOffset": 2060,
      "byteLength": 456,
      "target": 34963
    },
    {
      "buffer": 0,
      "byteOffset": 2516,
      "byteLength": 4344,
      "target": 34962,
      "byteStride": 12
    },
    {
      "buffer": 0,
      "byteOffset": 6860,
      "byteLength": 4344,
      "target": 34962,
      "byteStride": 12
    },
    {
      "buffer": 0,
      "byteOffset": 11204,
      "byteLength": 4320,
      "target": 34963
    },
    {
      "buffer": 0,
      "byteOffset": 15524,
      "byteLength": 960,
      "target": 34962,
      "byteStride": 12
    },
    {
      "buffer": 0,
      "byteOffset": 16484,
      "byteLength": 960,
      "target": 34962,
      "byteStride": 12
    },
    {
      "buffer": 0,
      "byteOffset": 17444,
      "byteLength": 456,
      "target": 34963
    },
    {
      "buffer": 0,
      "byteOffset": 17900,
      "byteLength": 4344,
      "target": 34962,
      "byteStride": 12
    },
    {
      "buffer": 0,
      "byteOffset": 22244,
      "byteLength": 4344,
      "target": 34962,
      "byteStride": 12
    },
    {
      "buffer": 0,
      "byteOffset": 26588,
      "byteLength": 4320,
      "target": 34963
    }
  ],
  "buffers": [
    {
      "byteLength": 30908,
      "uri": "data:application/octet-stream;base64,"
    }
  ],
  "accessors": [
    {
      "bufferView": 0,
      "componentType": 5126,
      "count": 4,
      "max": [
        50,
        50,
        0
      ],
      "min": [
        -50,
        -50,
        0
      ],
      "type": "VEC3"
    },
    {
      "bufferView": 1,
      "componentType": 5126,
      "count": 4,
      "max": [
        0,
        0,
        1
      ],
      "min": [
        0,
        0,
        1
      ],
      "type": "VEC3"
    },
    {
      "bufferView": 2,
      "componentType": 5126,
      "count": 4,
      "max": [
        1,
        1
      ],
      "min": [
        0,
        0
      ],
      "type": "VEC2"
    },
    {
      "bufferView": 3,
      "componentType": 5123,
      "count": 6,
      "max": [
        3
      ],
      "min": [
        0
      ],
      "type": "SCALAR"
    },
    {
      "bufferView": 4,
      "componentType": 5126,
      "count": 80,
      "max": [
        0.9986092448234558,
        1,
        0.9986092448234558
      ],
      "min": [
        -0.9986092448234558,
        -1,
        -0.9986092448234558
      ],
      "type": "VEC3"
    },
    {
      "bufferView": 5,
      "componentType": 5126,
      "count": 80,
      "max": [
        500,
        500,
        500
      ],
      "min": [
        -500,
        -500,
        -500
      ],
      "type": "VEC3"
    },
    {
      "bufferView": 6,
      "componentType": 5123,
      "count": 228,
      "max": [
        79
      ],
      "min": [
        0
      ],
      "type": "SCALAR"
    },
    {
      "bufferView": 7,
      "componentType": 5126,
      "count": 362,
      "max": [
        0.9966151118278503,
        0.9966151118278503,
        1
      ],
      "min": [
        -0.9966151118278503,
        -0.9966151118278503,
        -1
      ],
      "type": "VEC3"
    },
    {
      "bufferView": 8,
      "componentType": 5126,
      "count": 362,
      "max": [
        498.292236328125,
        498.292236328125,
        500
      ],
      "min": [
        -498.292236328125,
        -498.292236328125,
        -500
      ],
      "type": "VEC3"
    },
    {
      "bufferView": 9,
      "componentType": 5123,
      "count": 2160,
      "max": [
        361
      ],
      "min": [
        0
      ],
      "type": "SCALAR"
    },
    {
      "bufferView": 10,
      "componentType": 5126,
      "count": 80,
      "max": [
        0.9986092448234558,
        1,
        0.9986092448234558
      ],
      "min": [
        -0.9986092448234558,
        -1,
        -0.9986092448234558
      ],
      "type": "VEC3"
    },
    {
      "bufferView": 11,
      "componentType": 5126,
      "count": 80,
      "max": [
        500,
        500,
        500
      ],
      "min": [
        -500,
        -500,
        -500
      ],
      "type": "VEC3"
    },
    {
      "bufferView": 12,
      "componentType": 5123,
      "count": 228,
      "max": [
        79
      ],
      "min": [
        0
      ],
      "type": "SCALAR"
    },
    {
      "bufferView": 13,
      "componentType": 5126,
      "count": 362,
      "max": [
        0.9966151118278503,
        0.9966151118278503,
        1
      ],
      "min": [
        -0.9966151118278503,
        -0.9966151118278503,
        -1
      ],
      "type": "VEC3"
    },
    {
      "bufferView": 14,
      "componentType": 5126,
      "count": 362,
      "max": [
        498.292236328125,
        498.292236328125,
        500
      ],
      "min": [
        -498.292236328125,
        -498.292236328125,
        -500
      ],
      "type": "VEC3"
    },
    {
      "bufferView": 15,
      "componentType": 5123,
      "count": 2160,
      "max": [
        361
      ],
      "min": [
        0
      ],
      "type": "SCALAR"
    }
  ],
  "materials": [
    {
      "pbrMetallicRoughness": {
        "metallicFactor": 0.5,
        "roughnessFactor": 0.5,
        "baseColorTexture": {
          "index": 0,
          "extensions": {
            "KHR_texture_transform": {
              "scale": [
                64,
                64
              ]
            }
          }
        }
      }
    },
    {
      "pbrMetallicRoughness": {
        "metallicFactor": 0,
        "roughnessFactor": 1
      },
      "alphaMode": "BLEND",
      "doubleSided": true
    },
    {
      "pbrMetallicRoughness": {
        "metallicFactor": 0,
        "roughnessFactor": 1
      },
      "alphaMode": "BLEND",
      "doubleSided": true
    },
    {
      "pbrMetallicRoughness": {
        "metallicFactor": 0,
        "roughnessFactor": 1
      },
      "alphaMode": "BLEND",
      "doubleSided": true
    },
    {
      "pbrMetallicRoughness": {
        "metallicFactor": 0,
        "roughnessFactor": 1
      },
      "alphaMode": "BLEND",
      "doubleSided": true
    }
  ],
  "textures": [
    {
      "sampler": 0,
      "source": 0
    }
  ],
  "samplers": [
    {
      "magFilter": 9729,
      "minFilter": 9987,
      "wrapS": 10497,
      "wrapT": 10497
    }
  ],
  "images": [
    {
      "mimeType": "image/jpeg",
      "uri": "data:image/jpeg;base64,"
    }
  ],
  "meshes": [
    {
      "primitives": [
        {
          "mode": 4,
          "attributes": {
            "POSITION": 0,
            "NORMAL": 1,
            "TEXCOORD_0": 2
          },
          "indices": 3,
          "material": 0
        }
      ]
    },
    {
      "primitives": [
        {
          "mode": 4,
          "attributes": {
            "NORMAL": 4,
            "POSITION": 5
          },
          "indices": 6,
          "material": 1
        }
      ]
    },
    {
      "primitives": [
        {
          "mode": 4,
          "attributes": {
            "NORMAL": 7,
            "POSITION": 8
          },
          "indices": 9,
          "material": 2
        }
      ]
    },
    {
      "primitives": [
        {
          "mode": 4,
          "attributes": {
            "NORMAL": 10,
            "POSITION": 11
          },
          "indices": 12,
          "material": 3
        }
      ]
    },
    {
      "primitives": [
        {
          "mode": 4,
          "attributes": {
            "NORMAL": 13,
            "POSITION": 14
          },
          "indices": 15,
          "material": 4
        }
      ]
    }
  ],
  "extensionsUsed": [
    "KHR_lights_punctual",
    "KHR_texture_transform"
  ]
}