<?xml version="1.0" encoding="utf-8"?>
<!-- Generator: Adobe Illustrator 27.4.0, SVG Export Plug-In . SVG Version: 6.00 Build 0)  -->
<svg version="1.1" id="Layer_1" xmlns="http://www.w3.org/2000/svg" xmlns:xlink="http://www.w3.org/1999/xlink" x="0px" y="0px"
	 viewBox="0 0 116 113.7" style="enable-background:new 0 0 116 113.7;" xml:space="preserve">
<style type="text/css">
	.st0{clip-path:url(#SVGID_00000147179925284645585070000011199914177139384719_);}
	.st1{fill:none;stroke:#7798CE;stroke-width:4;stroke-miterlimit:10;}
</style>
<g>
	<g id="Layer-1">
		<g>
			<g>
				<defs>
					<polygon id="SVGID_1_" points="-2,2.1 357.4,-3.8 353.5,113.7 -2,112.9 					"/>
				</defs>
				<clipPath id="SVGID_00000182497167735435808370000006331481400738757021_">
					<use xlink:href="#SVGID_1_"  style="overflow:visible;"/>
				</clipPath>
				<g style="clip-path:url(#SVGID_00000182497167735435808370000006331481400738757021_);">
					<path class="st1" d="M94.6,54.4C94.6,76.3,76.9,94,55,94S15.4,76.3,15.4,54.4S33.1,14.8,55,14.8S94.6,32.5,94.6,54.4z"/>
					<path d="M93.9,23c0.6-0.3-0.3-1.4-0.8-1.9c0,0,0.7,0.5,0.8,0.2c0-0.3-0.1-0.9-1.2-1.4c-0.6-0.3-0.9-0.3-1.4-0.7
						c-0.4-0.4-0.9-0.8-1-1.1c-0.1-0.3-0.2-0.4,0.1-0.6c0.3-0.2,0.3-0.6,0.2-0.8c-0.2-0.5-0.5-0.5-0.6-0.1c-0.1,0.2-0.3,0.1-0.5,0.1
						s-0.5,0-0.7,0.3c-0.3,0.5-0.6,0.6-0.7,1.1c-0.1,0.4-1.2,0.8-1.9,1.1c-0.7,0.3-3.7,1.1-5.4,1.3c-1.8,0.1-3.9,0.3-5.7,1.5
						c0,0-1,0-2,0s-5.3,1.1-6.2,1.4c-0.9,0.3-1.2,0.4-2.2,0.2c-0.9-0.2-1.9-0.4-2.8,0c-1.4,0.6-2.3,1.4-2.3,1.4s-1.2,0.1-1.6,0.1
						h-1.1c0,0-0.3-2-0.3-2.8c0-0.9-0.2-1.4-0.2-1.4s0.3,0.3,0.6-0.1c0.3-0.4,0.2-1.2,0.2-1.6s-0.3-1.3-0.7-1.2c-0.1,0-0.1,0-0.2,0
						c0,0-0.2-2.1-0.5-2.7c-0.2-0.6-0.6-1.3-1.3-1.9c-0.4-0.4-1-0.7-1.6-0.9c-0.1-0.5-0.5-1.4-1.7-1.5c-1.4-0.1-2.5,0.6-2.7,1.5
						c-0.1,0.5,0.1,0.8,0.2,1c-0.1,0.1-0.2,0.2-0.3,0.3c-0.8,0.8-1,1.5-1,2.5c0,0.3,0.2,1.9,0.5,2.6c0.2,0.5,0.1,0.6,0.1,0.6
						s-0.5-0.1-0.6,0.3c0,0.4,0.1,1.2,0.2,1.5c0.1,0.4,0.3,0.9,0.7,1c0.4,0,0.5-0.2,0.5-0.2s0.5,1.2,0.7,1.4c0.2,0.3,0.9,1,1,1.6
						c0.2,0.6,0.2,1.7,0.1,2.1c-0.1,0.4-1.5,0.9-2.1,1.5c-0.4,0.5-1.1,0.9-1.1,0.9s-1.5,0-2.3,0.7s-2.1,1.9-2.6,3
						c-0.5,1-0.8,1.7-0.8,1.7s-1.8,0.9-3,2.1c-1.2,1.1-2.9,3.3-3.7,4.1c-0.4,0.4-1.4,1.1-2.3,2c-1.2,1.1-2,1.8-3.6,3.6
						c-1.6,1.9-4.4,4.9-5.2,5.5c-0.8,0.7-1.4,0.5-1.8,1.1c-0.4,0.7-0.8,1.1-0.9,2c-0.1,0.6-0.2,0.8-0.3,1.1
						c-0.2,0.3-0.5,0.5-0.5,0.7s0.3,0.3,0.4,0.3c0.2,0,0.9-0.2,1-0.7c0.1-0.7,0.7-0.6,0.7-0.4s-0.5,1.5-0.7,2.1
						c-0.3,0.7-0.4,1.7-0.4,2.1c0,0.3,0.2,0.7,0.4,0.4c0.2-0.3,0.4-1,0.4-1s-0.1,0.6,0,1.2c0,0.6,0.5,1,0.7-0.1c0,0,0,0.5,0.4,0.5
						s0.5-0.7,0.5-0.7c0,0.5,0.2,0.6,0.5,0.3c0.2-0.2,0.8-1.3,0.8-2.2c0.1-0.9,0.4-3.4,0.4-4s0.1-0.4,0.4-0.6c0.3-0.1,0.5-0.7,1-1.1
						c0.5-0.4,4.4-3.3,6.3-4.9c2-1.7,2.6-2.2,3.3-3.2c0.2-0.4,0.8-0.6,1.3-1.1c0.5-0.4,3.2-2.5,4-3.1c0.8-0.7,2.1-1.2,3.2-2.3
						c1.2-1.1,1.9-1.6,1.9-1.6s1.7,1,2.3,1.5s1.2,2.1,1.6,3c0.4,0.9,0.1,2.4,0,3.2s-0.2,0.9-0.4,1.3c-0.7,1.4-0.9,4.1-0.9,4.5
						s-4.2,4.9-5.6,7.1c-1.4,2.2-4.4,8.2-4.8,10.2c-0.5,1.9-0.7,2.8-0.2,3.7c0.5,0.8,2.1,1.6,3.1,1.1s2.1-1.3,3-2
						c0.7-0.5,4.9-5.6,5.7-6s3.2-2,3.8-3.1c0.8-1.2,1.6-2.4,1.8-3c0.1-0.3,1-0.3,0.9,0.1c-0.1,0.5-0.6,6.9-0.3,8.7
						c0.3,1.8,0.1,5.7,0.1,7.2s0,3.9-0.1,4.7c0,0.2,0.1-0.2-0.4,0.8s-1.1,3.1-0.7,4.8c0.4,1.7-0.3,5.3-0.3,5.8v0.5
						c0,0-1.2-0.3-1.6,0.3c-0.4,0.6-0.8,1.7-0.7,3.3c0.2,1.6-0.5,4.2-0.9,4.7c-0.3,0.5-1.8,1.5-1.5,4.2s1.4,2.6,2.5,2
						c1-0.7,3.5-3.8,4.1-7.3c0.1-0.7,1.4-3.1,1.2-4.1c-0.2-0.9,0.6-3.6,1.2-5.3c0.5-1.7,2.7-5.5,2.1-9.6c-0.1-1,0.5-2.7,1-3.9
						c0.8-2.2,3.2-10.2,4.2-16.1c0.3-1.6,0.4-1.6,0.7-5.5c0.2-2.6-0.8-7.1-1.1-7.7c-0.6-1-0.6-3.1-1.2-4.6c-0.3-0.9-0.2-2.7-0.3-3.7
						c-0.1-1-0.2-3.4-0.6-5.4c-0.4-1.9-0.4-2.4-0.3-2.9s1.2-0.5,2.1-0.7c0.9-0.1,3-0.3,5.5-2c0.3-0.2,2.2-0.8,2.9-1
						c0.6-0.2,1.4-0.3,1.8-0.3s0.7-0.4,0.9-0.5c0.2-0.1,7.8-2.5,9.1-3.2c0.9-0.5,1.3-0.2,1.6-0.5c0.2-0.2,0.4-0.1,1.1,0
						s1.7,0.4,2,0.7c0.3,0.3,1.1,2.1,1.2,2.7s0.4,1,0.6,0.5c0.2-0.6-0.1-1.5-0.1-1.5s0.1,0.1,0.3,0.3C93.8,24.2,94.1,23.5,93.9,23"
						/>
				</g>
			</g>
		</g>
	</g>
</g>
</svg>
