<?xml version="1.0" encoding="utf-8"?>
<!-- Generator: Adobe Illustrator 27.2.0, SVG Export Plug-In . SVG Version: 6.00 Build 0)  -->
<svg version="1.1" id="Layer_1" xmlns="http://www.w3.org/2000/svg" xmlns:xlink="http://www.w3.org/1999/xlink" x="0px" y="0px"
	 viewBox="0 0 325 113.7" style="enable-background:new 0 0 325 113.7;" xml:space="preserve">
<style type="text/css">
	.st0{clip-path:url(#SVGID_00000118359841647228140250000014546808224646328970_);}
	.st1{fill:none;stroke:#7798CE;stroke-width:4;stroke-miterlimit:10;}
	.st2{fill:#7799CF;}
</style>
<g>
	<g id="Layer-1">
		<g>
			<defs>
				<polygon id="SVGID_1_" points="5,2.1 364.4,-3.8 360.5,113.7 5,112.9 				"/>
			</defs>
			<clipPath id="SVGID_00000043429005044258696350000008021798149240187033_">
				<use xlink:href="#SVGID_1_"  style="overflow:visible;"/>
			</clipPath>
			<g style="clip-path:url(#SVGID_00000043429005044258696350000008021798149240187033_);">
				<path class="st1" d="M101.6,54.4c0,21.9-17.7,39.6-39.6,39.6c-21.9,0-39.6-17.7-39.6-39.6S40.1,14.8,62,14.8
					C83.9,14.8,101.6,32.5,101.6,54.4z"/>
				<path d="M100.9,23c0.6-0.3-0.3-1.4-0.8-1.9c0,0,0.7,0.5,0.8,0.2c0-0.3-0.1-0.9-1.2-1.4c-0.6-0.3-0.9-0.3-1.4-0.7
					c-0.4-0.4-0.9-0.8-1-1.1c-0.1-0.3-0.2-0.4,0.1-0.6c0.3-0.2,0.3-0.6,0.2-0.8c-0.2-0.5-0.5-0.5-0.6-0.1c-0.1,0.2-0.3,0.1-0.5,0.1
					c-0.2,0-0.5,0-0.7,0.3c-0.3,0.5-0.6,0.6-0.7,1.1c-0.1,0.4-1.2,0.8-1.9,1.1c-0.7,0.3-3.7,1.1-5.4,1.3c-1.8,0.1-3.9,0.3-5.7,1.5
					c0,0-1,0-2,0c-1,0-5.3,1.1-6.2,1.4c-0.9,0.3-1.2,0.4-2.2,0.2c-0.9-0.2-1.9-0.4-2.8,0c-1.4,0.6-2.3,1.4-2.3,1.4s-1.2,0.1-1.6,0.1
					h-1.1c0,0-0.3-2-0.3-2.8c0-0.9-0.2-1.4-0.2-1.4s0.3,0.3,0.6-0.1c0.3-0.4,0.2-1.2,0.2-1.6c0-0.4-0.3-1.3-0.7-1.2
					c-0.1,0-0.1,0-0.2,0c0,0-0.2-2.1-0.5-2.7c-0.2-0.6-0.6-1.3-1.3-1.9c-0.4-0.4-1-0.7-1.6-0.9c-0.1-0.5-0.5-1.4-1.7-1.5
					c-1.4-0.1-2.5,0.6-2.7,1.5c-0.1,0.5,0.1,0.8,0.2,1c-0.1,0.1-0.2,0.2-0.3,0.3c-0.8,0.8-1,1.5-1,2.5c0,0.3,0.2,1.9,0.5,2.6
					c0.2,0.5,0.1,0.6,0.1,0.6s-0.5-0.1-0.6,0.3c0,0.4,0.1,1.2,0.2,1.5c0.1,0.4,0.3,0.9,0.7,1c0.4,0,0.5-0.2,0.5-0.2s0.5,1.2,0.7,1.4
					c0.2,0.3,0.9,1,1,1.6c0.2,0.6,0.2,1.7,0.1,2.1c-0.1,0.4-1.5,0.9-2.1,1.5c-0.4,0.5-1.1,0.9-1.1,0.9s-1.5,0-2.3,0.7
					c-0.8,0.7-2.1,1.9-2.6,3c-0.5,1-0.8,1.7-0.8,1.7s-1.8,0.9-3,2.1c-1.2,1.1-2.9,3.3-3.7,4.1c-0.4,0.4-1.4,1.1-2.3,2
					c-1.2,1.1-2,1.8-3.6,3.6c-1.6,1.9-4.4,4.9-5.2,5.5c-0.8,0.7-1.4,0.5-1.8,1.1c-0.4,0.7-0.8,1.1-0.9,2c-0.1,0.6-0.2,0.8-0.3,1.1
					c-0.2,0.3-0.5,0.5-0.5,0.7c0,0.2,0.3,0.3,0.4,0.3c0.2,0,0.9-0.2,1-0.7c0.1-0.7,0.7-0.6,0.7-0.4s-0.5,1.5-0.7,2.1
					c-0.3,0.7-0.4,1.7-0.4,2.1c0,0.3,0.2,0.7,0.4,0.4c0.2-0.3,0.4-1,0.4-1s-0.1,0.6,0,1.2c0,0.6,0.5,1,0.7-0.1c0,0,0,0.5,0.4,0.5
					c0.4,0,0.5-0.7,0.5-0.7c0,0.5,0.2,0.6,0.5,0.3c0.2-0.2,0.8-1.3,0.8-2.2c0.1-0.9,0.4-3.4,0.4-4c0-0.6,0.1-0.4,0.4-0.6
					c0.3-0.1,0.5-0.7,1-1.1c0.5-0.4,4.4-3.3,6.3-4.9c2-1.7,2.6-2.2,3.3-3.2c0.2-0.4,0.8-0.6,1.3-1.1c0.5-0.4,3.2-2.5,4-3.1
					c0.8-0.7,2.1-1.2,3.2-2.3c1.2-1.1,1.9-1.6,1.9-1.6s1.7,1,2.3,1.5s1.2,2.1,1.6,3c0.4,0.9,0.1,2.4,0,3.2c-0.1,0.8-0.2,0.9-0.4,1.3
					c-0.7,1.4-0.9,4.1-0.9,4.5c0,0.4-4.2,4.9-5.6,7.1c-1.4,2.2-4.4,8.2-4.8,10.2c-0.5,1.9-0.7,2.8-0.2,3.7c0.5,0.8,2.1,1.6,3.1,1.1
					c1-0.5,2.1-1.3,3-2c0.7-0.5,4.9-5.6,5.7-6c0.8-0.4,3.2-2,3.8-3.1c0.8-1.2,1.6-2.4,1.8-3c0.1-0.3,1-0.3,0.9,0.1
					c-0.1,0.5-0.6,6.9-0.3,8.7c0.3,1.8,0.1,5.7,0.1,7.2c0,1.5,0,3.9-0.1,4.7c0,0.2,0.1-0.2-0.4,0.8c-0.5,1-1.1,3.1-0.7,4.8
					c0.4,1.7-0.3,5.3-0.3,5.8l0,0.5c0,0-1.2-0.3-1.6,0.3c-0.4,0.6-0.8,1.7-0.7,3.3c0.2,1.6-0.5,4.2-0.9,4.7
					c-0.3,0.5-1.8,1.5-1.5,4.2c0.3,2.7,1.4,2.6,2.5,2c1-0.7,3.5-3.8,4.1-7.3c0.1-0.7,1.4-3.1,1.2-4.1c-0.2-0.9,0.6-3.6,1.2-5.3
					c0.5-1.7,2.7-5.5,2.1-9.6c-0.1-1,0.5-2.7,1-3.9c0.8-2.2,3.2-10.2,4.2-16.1c0.3-1.6,0.4-1.6,0.7-5.5c0.2-2.6-0.8-7.1-1.1-7.7
					c-0.6-1-0.6-3.1-1.2-4.6c-0.3-0.9-0.2-2.7-0.3-3.7c-0.1-1-0.2-3.4-0.6-5.4c-0.4-1.9-0.4-2.4-0.3-2.9s1.2-0.5,2.1-0.7
					c0.9-0.1,3-0.3,5.5-2c0.3-0.2,2.2-0.8,2.9-1c0.6-0.2,1.4-0.3,1.8-0.3c0.4,0,0.7-0.4,0.9-0.5c0.2-0.1,7.8-2.5,9.1-3.2
					c0.9-0.5,1.3-0.2,1.6-0.5c0.2-0.2,0.4-0.1,1.1,0c0.7,0.1,1.7,0.4,2,0.7c0.3,0.3,1.1,2.1,1.2,2.7c0.1,0.6,0.4,1,0.6,0.5
					c0.2-0.6-0.1-1.5-0.1-1.5s0.1,0.1,0.3,0.3C100.8,24.2,101.1,23.5,100.9,23"/>
				<g>
					<path class="st2" d="M130.8,57.8c0,2,0.3,4,0.9,5.8c0.6,1.9,1.5,3.5,2.6,4.9c1.1,1.4,2.5,2.5,4.2,3.4c1.6,0.8,3.5,1.3,5.5,1.3
						c2.1,0,3.9-0.4,5.6-1.3c1.6-0.9,3-2,4.2-3.4c1.1-1.4,2-3.1,2.6-4.9c0.6-1.9,0.9-3.8,0.9-5.8s-0.3-4-0.9-5.8
						c-0.6-1.9-1.5-3.5-2.6-4.9c-1.1-1.4-2.5-2.5-4.2-3.4c-1.6-0.9-3.5-1.3-5.6-1.3c-2.1,0-3.9,0.4-5.5,1.3c-1.6,0.8-3,2-4.2,3.4
						c-1.1,1.4-2,3.1-2.6,4.9C131.1,53.8,130.8,55.8,130.8,57.8 M125.5,57.8c0-2.7,0.5-5.1,1.5-7.2c1-2.1,2.3-3.9,4-5.4
						c1.7-1.5,3.6-2.6,5.9-3.4c2.2-0.8,4.6-1.2,7.2-1.2c2.5,0,4.9,0.4,7.2,1.2c2.2,0.8,4.2,1.9,5.9,3.4c1.7,1.5,3,3.3,4,5.4
						c1,2.1,1.5,4.5,1.5,7.2s-0.5,5.1-1.5,7.2c-1,2.1-2.3,3.9-4,5.4c-1.7,1.5-3.6,2.6-5.9,3.4c-2.2,0.8-4.6,1.2-7.2,1.2
						c-2.5,0-4.9-0.4-7.2-1.2c-2.2-0.8-4.2-1.9-5.9-3.4c-1.7-1.5-3-3.3-4-5.4C126,62.9,125.5,60.5,125.5,57.8"/>
					<path class="st2" d="M172.4,69.6c0.4,1,1.1,1.9,2.3,2.6c1.1,0.8,2.5,1.1,3.9,1.1c2.1,0,3.6-0.8,4.6-2.3c1-1.6,1.5-3.5,1.5-6
						c0-1-0.1-2-0.4-3s-0.6-1.9-1.1-2.7s-1.1-1.5-1.9-2s-1.7-0.8-2.7-0.8c-1.5,0-2.8,0.3-4,0.8c-1.1,0.6-1.9,1.3-2.2,2.2V69.6z
						 M172.4,81.6c0,0.8,0.1,1.4,0.2,1.9c0.1,0.5,0.4,0.9,0.8,1.2c0.4,0.3,1,0.5,1.9,0.7c0.8,0.1,1.9,0.2,3.4,0.2v0.6
						c-1.2-0.1-2.5-0.1-3.7-0.2c-1.2,0-2.5-0.1-3.7-0.1c-1.1,0-2.3,0-3.4,0.1c-1.1,0-2.2,0.1-3.4,0.2v-0.6c0.7-0.1,1.3-0.2,1.8-0.3
						c0.5-0.1,0.9-0.3,1.3-0.5c0.3-0.2,0.6-0.6,0.8-1.1c0.2-0.4,0.2-1.1,0.2-1.8V60.2c0-1.4-0.3-2.3-0.9-2.8
						c-0.6-0.5-1.5-0.8-2.9-0.9v-0.6l7.6-0.8v2.1c1.2-0.9,2.3-1.5,3.4-1.8c1.1-0.4,2.3-0.5,3.8-0.5c1.5,0,2.8,0.2,4,0.8
						c1.2,0.5,2.2,1.2,3,2.1c0.8,0.9,1.5,2,1.9,3.2c0.4,1.2,0.7,2.6,0.7,4.1c0,1.5-0.3,2.9-0.9,4.1c-0.6,1.2-1.4,2.2-2.4,3.1
						c-1,0.9-2.1,1.5-3.4,2c-1.3,0.5-2.7,0.7-4.1,0.7c-1,0-2.1-0.1-3.1-0.4s-1.9-0.7-2.9-1.2V81.6z"/>
					<path class="st2" d="M205.6,62.1c-0.1-0.9-0.2-1.7-0.4-2.4c-0.2-0.7-0.4-1.3-0.8-1.8c-0.4-0.5-0.9-0.9-1.4-1.1
						c-0.6-0.2-1.4-0.4-2.3-0.4c-0.7,0-1.3,0.2-1.9,0.5c-0.6,0.3-1.1,0.8-1.5,1.3c-0.4,0.5-0.7,1.2-0.9,1.9c-0.2,0.7-0.3,1.3-0.3,2
						H205.6z M195.8,63.6c0,1.7,0.2,3.2,0.7,4.3c0.4,1.1,1,2,1.7,2.7c0.7,0.7,1.4,1.1,2.2,1.4c0.8,0.3,1.5,0.4,2.2,0.4
						c1.4,0,2.7-0.2,3.8-0.7c1.1-0.4,2.2-1.2,3.1-2.1l0.9,0.8c-1.4,1.5-2.8,2.6-4.2,3.3c-1.4,0.8-3.2,1.2-5.2,1.2
						c-1.4,0-2.7-0.3-3.8-0.9c-1.1-0.6-2.1-1.3-2.9-2.2c-0.8-0.9-1.4-2-1.8-3.2c-0.4-1.2-0.6-2.4-0.6-3.7c0-1.3,0.2-2.5,0.6-3.7
						c0.4-1.2,1-2.3,1.8-3.2c0.8-0.9,1.8-1.7,2.9-2.2c1.1-0.6,2.4-0.9,3.8-0.9c2.6,0,4.8,0.7,6.4,2.2c1.6,1.4,2.6,3.6,2.9,6.5H195.8
						z"/>
					<path class="st2" d="M212.5,56.3l7.3-1.1v2.7c0.9-0.7,1.9-1.4,3.1-2c1.2-0.6,2.3-1,3.4-1c0.9,0,1.8,0.1,2.7,0.4
						c0.8,0.2,1.6,0.6,2.3,1.1c0.7,0.5,1.2,1.2,1.6,2.2c0.4,0.9,0.6,2,0.6,3.3v8.8c0,1.1,0.3,1.8,0.9,2.2c0.6,0.3,1.5,0.6,2.6,0.8
						v0.6c-1-0.1-2-0.1-3.1-0.2c-1.1,0-2.2-0.1-3.4-0.1c-0.8,0-1.5,0-2.2,0.1c-0.7,0-1.4,0.1-2.1,0.2v-0.6c1.1-0.2,1.9-0.5,2.5-0.8
						c0.6-0.3,0.9-1.1,0.9-2.2v-8c0-1.7-0.4-3-1.1-4c-0.7-0.9-1.9-1.4-3.5-1.4c-0.6,0-1.1,0.1-1.8,0.2c-0.6,0.2-1.1,0.4-1.6,0.7
						s-0.9,0.6-1.2,0.9c-0.3,0.3-0.5,0.7-0.5,1v10.6c0,1.1,0.3,1.8,0.9,2.2c0.6,0.3,1.6,0.6,2.9,0.8v0.6c-1.1-0.1-2.3-0.1-3.4-0.2
						c-1.1,0-2.2-0.1-3.4-0.1c-0.8,0-1.5,0-2.2,0.1c-0.7,0-1.5,0.1-2.2,0.2v-0.6c1.1-0.2,2-0.5,2.6-0.8s0.9-1.1,0.9-2.2V59.1
						c0-1-0.3-1.6-1-1.8c-0.7-0.2-1.5-0.4-2.4-0.4V56.3z"/>
					<path d="M261.2,50.9c-0.4-1.1-1-2.1-1.7-3.2c-0.7-1-1.5-2-2.4-2.8c-0.9-0.8-1.9-1.5-3-2c-1.1-0.5-2.3-0.8-3.6-0.8
						c-1.9,0-3.5,0.3-4.7,1.1c-1.2,0.7-1.8,1.9-1.8,3.8c0,1.1,0.3,2,0.8,2.8c0.6,0.8,1.3,1.5,2.2,2.1c0.9,0.6,2,1.2,3.1,1.7
						s2.4,1,3.6,1.5c1.2,0.5,2.4,1.1,3.6,1.7c1.2,0.6,2.2,1.3,3.1,2.2c0.9,0.8,1.6,1.8,2.2,2.9c0.5,1.1,0.8,2.4,0.8,3.9
						c0,1.6-0.3,3-0.9,4.2c-0.6,1.2-1.4,2.2-2.4,2.9c-1,0.8-2.2,1.3-3.6,1.7c-1.3,0.4-2.8,0.5-4.3,0.5c-0.8,0-1.7-0.1-2.6-0.2
						c-0.9-0.2-1.8-0.3-2.6-0.5c-0.8-0.2-1.6-0.4-2.3-0.5c-0.7-0.2-1.2-0.2-1.6-0.2c-0.4,0-0.7,0.1-1.1,0.2
						c-0.3,0.1-0.7,0.2-1.1,0.4c-0.3-1.9-0.6-3.7-1-5.6c-0.4-1.8-0.8-3.7-1.2-5.5l0.6-0.3c0.6,1.2,1.3,2.4,2.2,3.6
						c0.8,1.3,1.8,2.4,2.9,3.5c1.1,1,2.2,1.9,3.5,2.6s2.7,1,4.2,1c1,0,1.9-0.1,2.8-0.3c0.9-0.2,1.7-0.6,2.4-1
						c0.7-0.5,1.2-1.1,1.6-1.8c0.4-0.7,0.6-1.7,0.6-2.8c0-1.6-0.5-2.9-1.4-3.9c-1-1-2.2-2-3.6-2.7c-1.4-0.8-3-1.5-4.7-2.2
						c-1.7-0.7-3.2-1.4-4.7-2.2c-1.4-0.8-2.6-1.8-3.6-2.9c-1-1.1-1.4-2.6-1.4-4.3c0-1.3,0.2-2.5,0.8-3.5c0.5-1.1,1.2-2,2-2.7
						c0.8-0.7,1.8-1.3,2.9-1.7c1.1-0.4,2.3-0.6,3.6-0.6c1.2,0,2.3,0.1,3.3,0.2c1,0.2,1.9,0.3,2.9,0.5c1,0.2,1.9,0.4,2.8,0.6
						c0.9,0.2,1.9,0.3,3,0.3c0,1.5,0,3,0.1,4.4c0,1.4,0.2,2.8,0.3,4.3H261.2z"/>
					<path d="M271.8,40.5c0.7,0,1.4,0.3,1.9,0.8c0.5,0.6,0.8,1.2,0.8,1.9s-0.3,1.4-0.8,1.9c-0.5,0.5-1.1,0.8-1.9,0.8
						c-0.7,0-1.4-0.3-1.9-0.8c-0.5-0.5-0.8-1.2-0.8-1.9s0.3-1.4,0.8-1.9C270.5,40.7,271.1,40.5,271.8,40.5 M270.4,61.6
						c0-0.8,0-1.5-0.1-2.1c0-0.6-0.2-1.1-0.4-1.5c-0.2-0.4-0.6-0.8-1.1-1c-0.5-0.3-1.2-0.4-2.1-0.5v-0.7l7.6-0.5v14.7
						c0,0.8,0.1,1.5,0.2,2s0.4,0.8,0.7,1.1c0.3,0.2,0.7,0.4,1.2,0.5c0.5,0.1,1.1,0.2,1.9,0.2v0.6c-1.2-0.1-2.3-0.1-3.5-0.2
						c-1.2,0-2.4,0-3.5,0c-0.8,0-1.5,0-2.2,0c-0.7,0-1.5,0.1-2.2,0.2v-0.6c0.7,0,1.2-0.1,1.7-0.2c0.5-0.1,0.9-0.3,1.1-0.5
						s0.5-0.6,0.6-1.1c0.1-0.5,0.2-1.1,0.2-2V61.6z"/>
					<path d="M287.2,70.7c0,1.1,0.3,1.8,0.9,2.2c0.6,0.3,1.5,0.6,2.6,0.8v0.6c-1-0.1-2-0.1-3.1-0.2c-1.1,0-2.2,0-3.3,0
						c-0.8,0-1.5,0-2.2,0c-0.7,0-1.5,0.1-2.3,0.2v-0.6c1.2-0.2,2.1-0.5,2.7-0.8c0.6-0.4,0.9-1.1,0.9-2.2V60.5c0-0.8-0.1-1.4-0.2-1.9
						c-0.1-0.5-0.3-0.8-0.6-1.1s-0.6-0.4-1.1-0.5c-0.4-0.1-1-0.2-1.6-0.2v-0.6l7.3-1v2.5c1.1-0.8,2.1-1.4,3.2-2
						c1.1-0.5,2.3-0.8,3.7-0.8c1.2,0,2.2,0.2,3.1,0.7c0.9,0.5,1.7,1.2,2.4,2.1c0.4-0.3,0.9-0.6,1.4-0.9c0.5-0.3,1.1-0.6,1.7-0.9
						c0.6-0.3,1.1-0.5,1.8-0.7c0.6-0.2,1.2-0.2,1.8-0.2c2.1,0,3.8,0.6,4.9,1.7c1.2,1.1,1.8,2.9,1.8,5.2v8.9c0,1.1,0.3,1.8,0.9,2.2
						c0.6,0.3,1.5,0.6,2.7,0.8v0.6c-1.1-0.1-2.1-0.1-3.2-0.2c-1.1,0-2.2,0-3.4,0c-0.8,0-1.5,0-2.2,0c-0.7,0-1.3,0.1-1.9,0.2v-0.6
						c1-0.2,1.7-0.5,2.3-0.8c0.6-0.4,0.9-1.1,0.9-2.2v-8.4c0-1.6-0.4-2.9-1.2-3.7c-0.8-0.8-1.8-1.2-2.8-1.2c-2,0-3.7,0.5-4.9,1.6
						v11.7c0,1.1,0.3,1.8,0.9,2.2c0.6,0.3,1.5,0.6,2.5,0.8v0.6c-1-0.1-2-0.1-3.1-0.2c-1.1,0-2.2,0-3.3,0c-0.8,0-1.5,0-2.2,0
						c-0.7,0-1.4,0.1-2,0.2v-0.6c1-0.2,1.7-0.5,2.3-0.8c0.6-0.4,0.9-1.1,0.9-2.2v-8.4c0-1.6-0.2-2.9-0.8-3.8
						c-0.5-0.9-1.6-1.4-3.3-1.4c-0.5,0-0.9,0-1.3,0.1c-0.4,0.1-0.8,0.2-1.1,0.4c-0.4,0.2-0.7,0.5-1.1,0.8c-0.4,0.3-0.8,0.7-1.3,1.2
						V70.7z"/>
				</g>
			</g>
		</g>
	</g>
</g>
</svg>
